<svg xmlns="http://www.w3.org/2000/svg" fill="none" viewBox="0 0 128 128">
  <path d="M50.4 78.5a75.1 75.1 0 0 0-28.5 6.9l24.2-65.7c.7-2 1.9-3.2 3.4-3.2h29c1.5 0 2.7 1.2 3.4 3.2l24.2 65.7s-13.6-7-28.5-6.9L67 45.5c-.4-1.7-1.6-2.8-2.9-2.8-1.3 0-2.5 1.1-2.9 2.7L50.4 78.5Z" fill="url(#gradient)"/>
  <path d="M82.1 83.5C74.8 79.2 66.6 77 58.3 77.2c-8.3.2-16.4 2.7-23.5 7.1L64 116.1l18.1-32.6Z" fill="#FF5D01"/>
  <defs>
    <linearGradient id="gradient" x1="64" y1="16.6" x2="64" y2="83.5" gradientUnits="userSpaceOnUse">
      <stop stop-color="#4F39FA"/>
      <stop offset="1" stop-color="#DA62C4"/>
    </linearGradient>
  </defs>
</svg>
